# AST/ASF file generated using VICON BodyLanguage
# -----------------------------------------------
:version 1.10
:name VICON
:units
  mass 1.0
  length 0.45
  angle deg
:documentation
   .ast/.asf automatically generated from VICON data using
   VICON BodyBuilder and BodyLanguage model FoxedUp or BRILLIANT.MOD
:root
   order TX TY TZ RX RY RZ
   axis XYZ
   position 0 0 0  
   orientation 0 0 0 
:bonedata
  begin
     id 1 
     name lhipjoint
     direction 0.535335 -0.74333 0.401095 
     length 2.04549 
     axis 0 0 0  XYZ
  end
  begin
     id 2 
     name lfemur
     direction 0.34202 -0.939693 0  
     length 6.95643  
     axis 0 0 20  XYZ
    dof rx ry rz
    limits (-160.0 20.0)
           (-70.0 70.0)
           (-60.0 70.0)
  end
  begin
     id 3 
     name ltibia
     direction 0.34192 -0.939729 0   
     length 5.55969   
     axis 0 0 20   XYZ
    dof rx
    limits (-10.0 170.0)
  end
  begin
     id 4 
     name lfoot
     direction 0.216943 -0.596046 0.773088   
     length 2.27918   
     axis -90 7.62852e-016 20   XYZ
    dof rx rz
    limits (-45.0 90.0)
           (-70.0 20.0)
  end
  begin
     id 5 
     name ltoes
     direction 1.53519e-011 -4.21748e-011 1   
     length 1.05562   
     axis -90 7.62852e-016 20   XYZ
    dof rx
    limits (-90.0 20.0)
  end
  begin
     id 6 
     name rhipjoint
     direction -0.576368 -0.719173 0.38806   
     length 2.1142  
     axis 0 0 0  XYZ 
  end
  begin
     id 7 
     name rfemur
     direction -0.34202 -0.939693 0   
     length 7.07928   
     axis 0 0 -20   XYZ
    dof rx ry rz
    limits (-160.0 20.0)
           (-70.0 70.0)
           (-70.0 60.0)
  end
  begin
     id 8 
     name rtibia
     direction -0.34202 -0.939693 0   
     length 5.79974   
     axis 0 0 -20   XYZ
    dof rx
    limits (-10.0 170.0)
 end
 begin
     id 9 
     name rfoot
     direction -0.189288 -0.520065 0.832888   
     length 2.42173  
     axis -90 -7.62852e-016 -20   XYZ
    dof rx rz
    limits (-45.0 90.0)
           (-20.0 70.0)
  end
  begin
     id 10 
     name rtoes
     direction -1.53574e-011 -4.21658e-011 1   
     length 1.14469   
     axis -90 -7.62852e-016 -20   XYZ
    dof rx
    limits (-90.0 20.0)
  end
  begin
     id 11 
     name lowerback
     direction -0.00135702 0.993803 0.111144   
     length 1.91308   
     axis 0 0 0   XYZ
    dof rx ry rz
    limits (-20.0 45.0)
           (-30.0 30.0)
           (-30.0 30.0)
  end
  begin
     id 12 
     name upperback
     direction -0.0056745 0.999813 0.0184631   
     length 1.9212   
     axis 0 0 0   XYZ
    dof rx ry rz
    limits (-20.0 45.0)
           (-30.0 30.0)
           (-30.0 30.0)
  end
  begin
     id 13 
     name thorax
     direction -0.00733434 0.999426 -0.0330788   
     length 1.94196   
     axis 0 0 0   XYZ
    dof rx ry rz
    limits (-20.0 45.0)
           (-30.0 30.0)
           (-30.0 30.0)
  end
  begin
     id 14 
     name lowerneck
     direction 0.0563074 0.996944 -0.0541571   
     length 2.34257   
     axis 0 0 0   XYZ
    dof rx ry rz
    limits (-20.0 45.0)
           (-30.0 30.0)
           (-30.0 30.0)
  end
  begin
     id 15 
     name upperneck
     direction -0.0544519 0.976166 -0.210085   
     length 2.32506   
     axis 0 0 0   XYZ
    dof rx ry rz
    limits (-20.0 45.0)
           (-30.0 30.0)
           (-30.0 30.0)
  end
  begin
     id 16
     name head
     direction -0.0226035 0.997615 -0.0652205  
     length 2.3648  
     axis 0 0 0   XYZ
    dof rx ry rz
    limits (-20.0 45.0)
           (-30.0 30.0)
           (-30.0 30.0)
  end
  begin
     id 17 
     name lclavicle
     direction 0.92109 0.381297 -0.0787716  
     length 4.0487  
     axis 0 0 0   XYZ
    dof ry rz
    limits (-20.0 10.0)
           (0.0 20.0)
  end
  begin
     id 18 
     name lhumerus
     direction 1 -4.48986e-011 3.56724e-027   
     length 4.94991   
     axis 180 -30 -90   XYZ
    dof rx ry rz
    limits (-60.0 90.0)
           (-90.0 90.0)
           (-90.0 90.0)
  end
  begin
     id 19
     name lradius
     direction 1 -4.48981e-011 8.62147e-027   
     length 2.7606   
     axis 180 -30 -90   XYZ
    dof rx
    limits (-10.0 170.0)
  end
  begin
     id 20
     name lwrist
     direction 1 -4.48989e-011 1.59799e-026   
     length 1.3803   
     axis -1.17785e-014 90 90   XYZ
    dof ry
    limits (-180.0 0.0)
 end
  begin
     id 21 
     name lhand
     direction 1 -4.48896e-011 3.19599e-026   
     length 0.843936   
     axis -2.03931e-014 90 90   XYZ
    dof rx rz
    limits (-90.0 90.0)
           (-45.0 45.0)
  end
  begin
     id 22 
     name lfingers
     direction 1 -4.48887e-011 6.39197e-026   
     length 0.680403   
     axis -4.07862e-014 90 90   XYZ
    dof rx
    limits (0.0 90.0)
  end
  begin
     id 23
     name lthumb
     direction 0.707107 -6.348e-011 0.707107   
     length 0.976926   
     axis -90 45 2.85299e-015   XYZ
    dof rx rz
    limits (-45.0 45.0)
           (-45.0 45.0)
  end
  begin
     id 24 
     name rclavicle
     direction -0.951104 0.307692 -0.026953   
     length 4.21801  
     axis 0 0 0   XYZ 
    dof ry rz
    limits (-10.0 20.0)
           (-20.0 0.0)
  end
  begin
     id 25 
     name rhumerus
     direction -1 -4.4896e-011 -1.8171e-018  
     length 4.32982   
     axis 180 30 90   XYZ
    dof rx ry rz
    limits (-90.0 60.0)
           (-90.0 90.0)
           (-90.0 90.0)
  end
  begin
     id 26 
     name rradius
     direction -1 -4.48959e-011 8.25165e-027   
     length 3.20057   
     axis 180 30 90   XYZ
    dof rx
    limits (-10.0 170.0)
  end
  begin
     id 27 
     name rwrist
     direction -1 -4.48997e-011 1.59799e-026   
     length 1.60029   
     axis -1.17785e-014 -90 -90   XYZ
    dof ry
    limits (-180.0 0.0)
  end
  begin
     id 28
     name rhand
     direction -1 -4.49023e-011 3.19599e-026   
     length 0.960433   
     axis -2.03931e-014 -90 -90   XYZ
    dof rx rz
    limits (-90.0 90.0)
           (-45.0 45.0)
  end
  begin
     id 29
     name rfingers
     direction -1 -4.48802e-011 6.39197e-026   
     length 0.774326   
     axis -4.07862e-014 -90 -90   XYZ
    dof rx
    limits (0.0 90.0)
  end
  begin
     id 30
     name rthumb
     direction -0.707107 -6.34876e-011 0.707107   
     length 1.11178   
     axis -90 -45 -2.85299e-015   XYZ
    dof rx rz
    limits (-45.0 45.0)
           (-45.0 45.0)
  end
:hierarchy
  begin
    root lhipjoint rhipjoint lowerback
    lhipjoint lfemur
    lfemur ltibia
    ltibia lfoot
    lfoot ltoes
    rhipjoint rfemur
    rfemur rtibia
    rtibia rfoot
    rfoot rtoes
    lowerback upperback
    upperback thorax
    thorax lowerneck lclavicle rclavicle
    lowerneck upperneck
    upperneck head
    lclavicle lhumerus
    lhumerus lradius
    lradius lwrist
    lwrist lhand lthumb
    lhand lfingers
    rclavicle rhumerus
    rhumerus rradius
    rradius rwrist
    rwrist rhand rthumb
    rhand rfingers
end

#!OML:ASF C:\KaitlinTest1\Natural Motions\Nikki\Session 2\Nikki.ASF
:FULLY-SPECIFIED
:DEGREES
376
root -18.9006 16.6326 5.06281 -155.452 85.7374 -165.376
lowerback -13.3537 -1.69017 -0.0749252
upperback -4.04135 -2.02194 -0.516628
thorax 3.2155 -0.926104 -0.811984
lowerneck -1.85371 1.57014 8.4289
upperneck 27.3221 3.7993 -5.50483
head 9.08393 2.52267 -2.97401
rclavicle 2.68359e-015 2.38542e-015
rhumerus -42.5857 -22.0809 -79.2853
rradius 18.4707
rwrist 28.8963
rhand -35.9504 3.17863
rfingers 7.12502
rthumb -9.06196 -26.6067
lclavicle 2.68359e-015 2.38542e-015
lhumerus -42.2602 15.9757 80.52
lradius 24.0726
lwrist -39.349
lhand -33.0944 3.81464
lfingers 7.12502
lthumb -6.30533 33.7008
rfemur -7.85211 -16.7006 21.0189
rtibia 11.2836
rfoot -10.6946 11.821
rtoes 7.95139e-016
lfemur -9.99524 11.9314 -17.9345
ltibia 9.63358
lfoot -1.969 -16.7321
ltoes -6.36111e-015
377
root -18.9002 16.633 5.06282 -155.587 85.7281 -165.501
lowerback -13.3333 -1.69661 -0.0860602
upperback -4.04681 -2.02936 -0.510235
thorax 3.19927 -0.929841 -0.799502
lowerneck -1.85183 1.57032 8.42885
upperneck 27.3393 3.80557 -5.51875
head 9.09029 2.52514 -2.97849
rclavicle 5.34234e-015 5.1684e-015
rhumerus -42.5732 -21.9398 -79.3785
rradius 18.5423
rwrist 28.6723
rhand -35.9416 3.07682
rfingers 7.12502
rthumb -9.05342 -26.7089
lclavicle 5.34234e-015 5.1684e-015
lhumerus -42.2686 15.9477 80.5639
lradius 24.0958
lwrist -39.2222
lhand -33.034 3.85231
lfingers 7.12502
lthumb -6.24702 33.7402
rfemur -7.8357 -16.7048 21.0085
rtibia 11.2839
rfoot -10.7197 11.8182
rtoes 2.46493e-014
lfemur -9.97841 11.9193 -17.9333
ltibia 9.62317
lfoot -1.94932 -16.7419
ltoes -1.59028e-015
378
root -18.8994 16.6329 5.06234 -155.136 85.7209 -165.026
lowerback -13.2633 -1.69603 -0.0541102
upperback -4.07892 -2.03342 -0.490476
thorax 3.12726 -0.931884 -0.794792
lowerneck -1.78938 1.56424 8.42753
upperneck 27.3308 3.80866 -5.53525
head 9.07601 2.52684 -2.98419
rclavicle -2.36802e-014 -1.27222e-014
rhumerus -42.6571 -22.072 -79.2125
rradius 18.478
rwrist 28.9165
rhand -35.9584 3.19796
rfingers 7.12502
rthumb -9.06968 -26.587
lclavicle -2.36802e-014 -1.27222e-014
lhumerus -42.3422 15.9631 80.5441
lradius 24.1012
lwrist -39.2992
lhand -33.0405 3.91088
lfingers 7.12502
lthumb -6.25331 33.7986
rfemur -7.8025 -16.7106 21.0397
rtibia 11.2667
rfoot -10.6853 11.8261
rtoes -3.57812e-014
lfemur -9.95327 11.9269 -17.8926
ltibia 9.63804
lfoot -1.97418 -16.741
ltoes -4.45278e-014
379
root -18.8984 16.6334 5.06305 -155.618 85.7441 -165.522
lowerback -13.3064 -1.70053 -0.108719
upperback -4.05968 -2.03193 -0.499688
thorax 3.17238 -0.931117 -0.775102
lowerneck -1.8302 1.57078 8.42739
upperneck 27.3367 3.81191 -5.53062
head 9.08594 2.52751 -2.982
rclavicle 7.40473e-015 0
rhumerus -42.5948 -22.0277 -79.2718
rradius 18.4972
rwrist 28.9002
rhand -35.9142 3.01692
rfingers 7.12502
rthumb -9.02697 -26.7699
lclavicle 7.40473e-015 0
lhumerus -42.3145 15.9316 80.5642
lradius 24.1079
lwrist -39.352
lhand -33.0193 3.88096
lfingers 7.12502
lthumb -6.23287 33.7693
rfemur -7.80643 -16.7159 20.9941
rtibia 11.2525
rfoot -10.6812 11.8331
rtoes 2.46493e-014
lfemur -9.97398 11.9324 -17.9423
ltibia 9.65159
lfoot -1.93234 -16.7344
ltoes -9.54166e-015
380
root -18.8973 16.6324 5.0624 -155.252 85.7309 -165.148
lowerback -13.3069 -1.69414 -0.0583861
upperback -4.06228 -2.03013 -0.496769
thorax 3.16827 -0.930186 -0.800066
lowerneck -1.80152 1.57224 8.42447
upperneck 27.322 3.81602 -5.52871
head 9.07563 2.52978 -2.98057
rclavicle -4.24902e-015 -3.97569e-015
rhumerus -42.6028 -22.0986 -79.2258
rradius 18.4941
rwrist 28.9518
rhand -35.8726 2.97686
rfingers 7.12502
rthumb -8.98682 -26.8117
lclavicle -4.24902e-015 -3.97569e-015
lhumerus -42.3397 15.9975 80.5226
lradius 24.1444
lwrist -39.4193
lhand -32.9202 3.91897
lfingers 7.12502
lthumb -6.13719 33.8101
rfemur -7.7916 -16.7415 21.0264
rtibia 11.2515
rfoot -10.7012 11.8539
rtoes 1.27222e-014
lfemur -9.95927 11.9324 -17.9056
ltibia 9.65311
lfoot -1.95761 -16.7205
ltoes 6.04305e-014
381
root -18.8955 16.6318 5.06172 -155.163 85.745 -165.065
lowerback -13.3229 -1.69265 -0.0466553
upperback -4.06146 -2.02946 -0.49775
thorax 3.17737 -0.929764 -0.808085
lowerneck -1.80473 1.56844 8.42377
upperneck 27.3192 3.81234 -5.53932
head 9.07499 2.52668 -2.98444
rclavicle -1.52319e-014 -7.55382e-015
rhumerus -42.5993 -22.0886 -79.2345
rradius 18.4828
rwrist 28.9296
rhand -35.907 3.01064
rfingers 7.12502
rthumb -9.02002 -26.7765
lclavicle -1.52319e-014 -7.55382e-015
lhumerus -42.3511 16.036 80.4959
lradius 24.1297
lwrist -39.4872
lhand -32.9167 3.86282
lfingers 7.12502
lthumb -6.13378 33.754
rfemur -7.79912 -16.7668 21.0243
rtibia 11.2631
rfoot -10.7123 11.9088
rtoes -2.54444e-014
lfemur -9.94194 11.9474 -17.9108
ltibia 9.63961
lfoot -1.97758 -16.7241
ltoes -9.54166e-015
382
root -18.8952 16.6321 5.06154 -155.338 85.7557 -165.255
lowerback -13.3157 -1.69175 -0.0637658
upperback -4.08571 -2.02471 -0.503449
thorax 3.14853 -0.927073 -0.802954
lowerneck -1.7935 1.56119 8.42844
upperneck 27.3445 3.80528 -5.53569
head 9.08138 2.52566 -2.98489
rclavicle -2.39784e-014 -1.51076e-014
rhumerus -42.6385 -21.9773 -79.2892
rradius 18.5444
rwrist 28.7966
rhand -35.8699 2.93253
rfingers 7.12502
rthumb -8.98429 -26.8562
lclavicle -2.39784e-014 -1.51076e-014
lhumerus -42.3797 15.9336 80.5499
lradius 24.1579
lwrist -39.4069
lhand -32.8453 3.94778
lfingers 7.12502
lthumb -6.06485 33.841
rfemur -7.82015 -16.7734 21.0105
rtibia 11.2682
rfoot -10.7142 11.9143
rtoes -5.725e-014
lfemur -9.95509 11.9511 -17.9346
ltibia 9.63925
lfoot -2.00562 -16.7306
ltoes -5.56597e-014
383
root -18.8947 16.6323 5.06275 -155.383 85.7462 -165.303
lowerback -13.3485 -1.69116 -0.0724069
upperback -4.06435 -2.0227 -0.514351
thorax 3.18859 -0.926155 -0.810539
lowerneck -1.81206 1.56106 8.44802
upperneck 27.3345 3.7947 -5.51826
head 9.08077 2.52313 -2.98286
rclavicle -1.5207e-014 3.97569e-016
rhumerus -42.6107 -21.9973 -79.3149
rradius 18.5587
rwrist 28.8097
rhand -35.8624 2.92316
rfingers 7.12502
rthumb -8.97703 -26.8658
lclavicle -1.5207e-014 3.97569e-016
lhumerus -42.3565 15.9816 80.5008
lradius 24.1327
lwrist -39.4991
lhand -32.9565 3.87569
lfingers 7.12502
lthumb -6.17222 33.7658
rfemur -7.83175 -16.7289 21.0188
rtibia 11.2933
rfoot -10.7218 11.851
rtoes -2.14687e-014
lfemur -9.95207 11.9425 -17.9265
ltibia 9.60775
lfoot -1.98476 -16.7344
ltoes -1.59028e-014
384
root -18.8942 16.6319 5.06286 -155.384 85.7604 -165.272
lowerback -13.2981 -1.69689 -0.0829331
upperback -4.06675 -2.03002 -0.5073
thorax 3.15931 -0.930147 -0.796856
lowerneck -1.7886 1.57003 8.42741
upperneck 27.3165 3.8066 -5.50311
head 9.07038 2.52807 -2.97302
rclavicle -1.98288e-014 -3.97569e-015
rhumerus -42.6435 -22.1073 -79.201
rradius 18.4932
rwrist 29.0339
rhand -35.951 3.09656
rfingers 7.12502
rthumb -9.06255 -26.6887
lclavicle -1.98288e-014 -3.97569e-015
lhumerus -42.3682 15.9274 80.5404
lradius 24.1638
lwrist -39.481
lhand -32.8805 3.96848
lfingers 7.12502
lthumb -6.09882 33.8607
rfemur -7.7991 -16.7195 21.0027
rtibia 11.3046
rfoot -10.74 11.8567
rtoes -6.91771e-014
lfemur -9.9019 11.9554 -17.9227
ltibia 9.58759
lfoot -1.96212 -16.7452
ltoes 4.77083e-015
385
root -18.8913 16.6318 5.0623 -155.753 85.789 -165.653
lowerback -13.354 -1.69363 -0.116676
upperback -4.05594 -2.02051 -0.513646
thorax 3.20201 -0.925186 -0.784877
lowerneck -1.80952 1.57212 8.41372
upperneck 27.3364 3.80947 -5.49788
head 9.08117 2.52866 -2.96857
rclavicle -3.77691e-015 -3.97569e-016
rhumerus -42.6192 -21.9883 -79.2908
rradius 18.5613
rwrist 28.8289
rhand -35.8612 2.929
rfingers 7.12502
rthumb -8.97591 -26.8601
lclavicle -3.77691e-015 -3.97569e-016
lhumerus -42.373 15.9858 80.5299
lradius 24.144
lwrist -39.4806
lhand -32.95 3.85405
lfingers 7.12502
lthumb -6.16598 33.7443
rfemur -7.80205 -16.7594 20.9594
rtibia 11.3062
rfoot -10.7578 11.9075
rtoes -5.40694e-014
lfemur -9.88844 11.9686 -17.9711
ltibia 9.57895
lfoot -1.99204 -16.7376
ltoes -7.95139e-015
386
root -18.892 16.6314 5.06238 -155.606 85.7763 -165.475
lowerback -13.3085 -1.68645 -0.0847399
upperback -4.04964 -2.0159 -0.523025
thorax 3.1825 -0.923362 -0.810659
lowerneck -1.82709 1.5602 8.45115
upperneck 27.3593 3.79606 -5.52619
head 9.09258 2.52379 -2.98616
rclavicle 2.44257e-014 9.54166e-015
rhumerus -42.6132 -22.0726 -79.2622
rradius 18.5201
rwrist 28.9072
rhand -35.884 2.95365
rfingers 7.12502
rthumb -8.99786 -26.8345
lclavicle 2.44257e-014 9.54166e-015
lhumerus -42.3703 16.0425 80.4728
lradius 24.143
lwrist -39.5406
lhand -32.8454 3.81598
lfingers 7.12502
lthumb -6.06494 33.7092
rfemur -7.77137 -16.7117 20.9687
rtibia 11.317
rfoot -10.7328 11.8481
rtoes 8.66701e-014
lfemur -9.84879 11.9623 -17.9417
ltibia 9.55526
lfoot -1.94861 -16.7403
ltoes 1.03368e-013
